<?xml version="1.0" encoding="utf-8"?>
<!-- Generator: Adobe Illustrator 24.0.0, SVG Export Plug-In . SVG Version: 6.00 Build 0)  -->
<svg version="1.1" id="Layer_1" xmlns="http://www.w3.org/2000/svg" xmlns:xlink="http://www.w3.org/1999/xlink" x="0px" y="0px"
	 viewBox="0 0 169.9 142.6" style="enable-background:new 0 0 169.9 142.6;" xml:space="preserve">
<style type="text/css">
	.st0{fill-rule:evenodd;clip-rule:evenodd;fill:#FFFFFF;}
	.st1{fill:none;stroke:#515151;stroke-width:2;stroke-linecap:round;stroke-linejoin:round;stroke-miterlimit:10;}
	.st2{fill:none;stroke:#D56457;stroke-width:2;stroke-miterlimit:10;}
</style>
<g>
	<rect class="st0" width="169.9" height="142.6"/>
	<g>
		<path class="st1" d="M99.8,40.5c0,9.1-6.6,21.2-14.8,21.2S70.1,49.5,70.1,40.5"/>
		<path class="st1" d="M67.8,39.9c9,0,14.7-8.5,14.7-8.5s7.9,8.5,20.4,8.5"/>
		<path class="st1" d="M92.4,68.7l-2.2,1.5c-3.2,2.2-7.4,2.2-10.6,0l-2.2-1.5"/>
		<path class="st1" d="M84.9,20c-10.2-7.5-30,4.2-20,37.6c3.8,12.5-11.3,17.5-11.3,17.5s23.8,7.5,26.3-15"/>
		<path class="st1" d="M84.9,20c10.2-7.5,30,4.2,20,37.6c-3.8,12.5,11.3,17.5,11.3,17.5s-23.8,7.5-26.3-15"/>
		<path class="st1" d="M111.7,81.4c-0.2-0.5-0.4-1-0.6-1.5c-0.6-1.3-1.3-2.5-2.2-3.6"/>
		<path class="st1" d="M61,76.3c-0.9,1.1-1.6,2.3-2.2,3.6c-0.2,0.5-0.4,1-0.6,1.5"/>
		<path class="st1" d="M46.6,93.3V81.4H79c3.3,0,5.9,2.2,5.9,4.9V120v6.9c0-2.7-2.7-4.9-5.9-4.9H46.6v-2v-14.4"/>
		<path class="st1" d="M123.3,93.3V81.4H90.9c-3.3,0-5.9,2.2-5.9,4.9V120v6.9c0-2.7,2.7-4.9,5.9-4.9h32.4v-2v-14.4"/>
		<rect x="53.9" y="90.9" class="st2" width="23.8" height="16.6"/>
		<line class="st1" x1="60.6" y1="96.6" x2="71" y2="96.6"/>
		<line class="st1" x1="60.6" y1="101.8" x2="66.8" y2="101.8"/>
		<path class="st1" d="M125.9,106.3L125.9,106.3c-3,0-5.5-2.5-5.5-5.5v-2.7c0-3,2.5-5.5,5.5-5.5l0,0c3,0,4.1,2.5,4.1,5.5v2.7
			C129.9,103.8,128.9,106.3,125.9,106.3z"/>
		<path class="st1" d="M44,106.3L44,106.3c-3,0-4.1-2.5-4.1-5.5v-2.7c0-3,1.1-5.5,4.1-5.5l0,0c3,0,5.5,2.5,5.5,5.5v2.7
			C49.5,103.8,47,106.3,44,106.3z"/>
	</g>
</g>
</svg>
