<?xml version="1.0" encoding="utf-8"?>
<!-- Generator: Adobe Illustrator 24.0.0, SVG Export Plug-In . SVG Version: 6.00 Build 0)  -->
<svg version="1.1" id="Layer_1" xmlns="http://www.w3.org/2000/svg" xmlns:xlink="http://www.w3.org/1999/xlink" x="0px" y="0px"
	 viewBox="0 0 169.9 142.6" style="enable-background:new 0 0 169.9 142.6;" xml:space="preserve">
<style type="text/css">
	.st0{fill-rule:evenodd;clip-rule:evenodd;fill:#FFFFFF;}
	.st1{fill:none;stroke:#515151;stroke-width:2;stroke-linecap:round;stroke-linejoin:round;stroke-miterlimit:10;}
	.st2{fill:none;stroke:#D56457;stroke-width:2;stroke-linecap:round;stroke-linejoin:round;stroke-miterlimit:10;}
</style>
<g>
	<rect class="st0" width="169.9" height="142.6"/>
	<g>
		<path class="st1" d="M30.7,119.9l108.5,0c0.4,0,0.8,0.3,0.8,0.8v2.3c0,2.2-1.8,4-4,4H33.9c-2.2,0-4-1.8-4-4l0-2.3
			C29.9,120.2,30.3,119.9,30.7,119.9z"/>
		<line class="st1" x1="83.3" y1="59.7" x2="86.6" y2="59.7"/>
		<line class="st1" x1="40.5" y1="65" x2="129.4" y2="65"/>
		<path class="st1" d="M30.5,119.9l10-11.2V62.3c0-4.4,3.6-8.1,8.1-8.1h72.8c4.4,0,8.1,3.6,8.1,8.1v46.4l10,11.2"/>
		<line class="st1" x1="40.5" y1="108.8" x2="129.4" y2="108.8"/>
		<line class="st1" x1="83.3" y1="114.7" x2="85.5" y2="114.7"/>
		<line class="st1" x1="91.1" y1="114.7" x2="93.3" y2="114.7"/>
		<line class="st1" x1="67.7" y1="114.7" x2="69.9" y2="114.7"/>
		<line class="st1" x1="75.5" y1="114.7" x2="77.7" y2="114.7"/>
		<line class="st1" x1="59.9" y1="114.7" x2="62.2" y2="114.7"/>
		<line class="st1" x1="44.4" y1="114.7" x2="46.6" y2="114.7"/>
		<line class="st1" x1="52.2" y1="114.7" x2="54.4" y2="114.7"/>
		<line class="st1" x1="115.5" y1="114.7" x2="117.7" y2="114.7"/>
		<line class="st1" x1="123.3" y1="114.7" x2="125.5" y2="114.7"/>
		<line class="st1" x1="107.7" y1="114.7" x2="109.9" y2="114.7"/>
		<polygon class="st2" points="104.2,83.4 84.9,93 65.7,83.4 84.9,73.7 		"/>
		<path class="st2" d="M95.8,87.6v7.5c0,2.3-4.8,4.1-10.7,4.1c-5.9,0-10.7-1.8-10.7-4.1v-7.4"/>
	</g>
</g>
</svg>
