<?xml version="1.0" encoding="utf-8"?>
<!-- Generator: Adobe Illustrator 24.0.0, SVG Export Plug-In . SVG Version: 6.00 Build 0)  -->
<svg version="1.1" id="Layer_1" xmlns="http://www.w3.org/2000/svg" xmlns:xlink="http://www.w3.org/1999/xlink" x="0px" y="0px"
	 viewBox="0 0 169.9 142.6" style="enable-background:new 0 0 169.9 142.6;" xml:space="preserve">
<style type="text/css">
	.st0{fill-rule:evenodd;clip-rule:evenodd;fill:#FFFFFF;}
	.st1{fill:none;stroke:#515151;stroke-width:2;stroke-miterlimit:10;}
	.st2{fill:none;stroke:#D56457;stroke-width:2;stroke-miterlimit:10;}
</style>
<g>
	<rect class="st0" width="169.9" height="142.6"/>
	<g>
		<path class="st1" d="M110.1,83.2c-12,8-20.9-5.2-20.9-5.2c-4.2-5.8-7.3,0.2-7.3,0.2c-2.2,5.4-5.4,4.9-7.3,4
			c-1-0.5-1.4-1.6-1.1-2.6l1.4-4.9c0.6-2.2,2.2-3.9,4.2-4.8l5.4-2.4c1.9-0.9,3.7-0.7,6.1-0.2l14.1,3.3L110.1,83.2z"/>
		<path class="st1" d="M113,90.2l-9.3,2.9L97.9,85c0,0,6.8,2.8,12.1-1.8L113,90.2z"/>
		<polygon class="st1" points="32.9,51.7 32.9,93.8 41.1,97.1 55.9,61 		"/>
		<polyline class="st2" points="54.7,63.9 65.2,68.4 55.9,90.2 45.6,86.1 		"/>
		<polygon class="st1" points="137,54 137,96.1 128.8,99.3 114,63.3 		"/>
		<polyline class="st2" points="115.2,66.2 104.7,70.6 114,92.4 124.3,88.4 		"/>
		<path class="st1" d="M97.3,84.9l8,10c0.6,0.8,0.8,1.8,0.5,2.7h0c-0.8,2.3-3.8,2.9-5.4,1.2l-11-11.7"/>
		<path class="st1" d="M84.4,92.7l9.2,9.7c2.5,2.6,6.9,1.7,8-1.8c0-0.1,0-0.1,0.1-0.2"/>
		<path class="st1" d="M80,97.2l7.6,8.5c0.9,0.9,2,1.6,3.3,1.7c1.4,0.1,3.3-0.5,4.8-3"/>
		<path class="st1" d="M65.2,68.4c0,0,8.4-0.7,15.3,0.9"/>
		<path class="st1" d="M57.5,86.3c0,0,10.6,7.3,22.1,18.6l3.6,3.4c1.8,1.7,4.9,0.8,5.3-1.7c0,0,0-0.1,0-0.1"/>
		<path class="st1" d="M63.6,90.9l-0.9,1.1c-0.9,1-0.8,2.6,0.3,3.5l0,0c1.1,0.9,2.8,0.8,3.7-0.3l0.9-1"/>
		<path class="st1" d="M72.4,98.3l-2.1,2.3c-1.1,1.2-3,1.3-4.2,0.2l0,0c-1.3-1.1-1.4-3-0.3-4.3l1.9-2.2"/>
		<path class="st1" d="M72.4,98.3l-1.3,1.5c-1.1,1.2-1,3.1,0.2,4.2l0,0c1.2,1.1,3.1,1.1,4.2-0.1l1.4-1.5"/>
		<path class="st1" d="M81,106.2l-0.7,0.8c-1.1,1.1-2.9,1.1-4,0.1l0,0c-1.1-1.1-1.2-2.9-0.1-4l0.5-0.6"/>
	</g>
</g>
</svg>
