<?xml version="1.0" encoding="utf-8"?>
<!-- Generator: Adobe Illustrator 24.0.0, SVG Export Plug-In . SVG Version: 6.00 Build 0)  -->
<svg version="1.1" id="Layer_1" xmlns="http://www.w3.org/2000/svg" xmlns:xlink="http://www.w3.org/1999/xlink" x="0px" y="0px"
	 viewBox="0 0 169.9 142.6" style="enable-background:new 0 0 169.9 142.6;" xml:space="preserve">
<style type="text/css">
	.st0{fill-rule:evenodd;clip-rule:evenodd;fill:#FFFFFF;}
	.st1{fill:none;stroke:#515151;stroke-width:2;stroke-miterlimit:10;}
	.st2{fill:none;stroke:#D56457;stroke-width:2;stroke-miterlimit:10;}
</style>
<g>
	<rect class="st0" width="169.9" height="142.6"/>
	<g>
		<path class="st1" d="M89.4,100.3V95c0,0,5.3-4,5.3-8.9V79"/>
		<path class="st1" d="M75.2,57.6l-8.9,7.1c-2.5,2.3-3.6,3.6-3.6,7.1v12.1l0,16.4"/>
		<rect x="59.1" y="100.3" class="st1" width="33.8" height="8.9"/>
		<path class="st2" d="M75.2,72V30.9c0-2,1.6-3.6,3.6-3.6h28.5c2,0,3.6,1.6,3.6,3.6v44.5c0,2-1.6,3.6-3.6,3.6H84.1"/>
		<line class="st2" x1="101.9" y1="27.4" x2="101.9" y2="79"/>
		<path class="st1" d="M69.8,77.2c0,0,11-11,14.2-14.2c3.3-3.3,8.4,4.9,4.5,9.8c-1.9,1.9-4.5,4.5-4.5,4.5c0,0.8,0,4.6,0,5.3
			c0,7-6.1,7.1-7.1,7.1"/>
	</g>
</g>
</svg>
