<?xml version="1.0" encoding="utf-8"?>
<!-- Generator: Adobe Illustrator 24.0.0, SVG Export Plug-In . SVG Version: 6.00 Build 0)  -->
<svg version="1.1" id="Layer_1" xmlns="http://www.w3.org/2000/svg" xmlns:xlink="http://www.w3.org/1999/xlink" x="0px" y="0px"
	 viewBox="0 0 169.9 142.6" style="enable-background:new 0 0 169.9 142.6;" xml:space="preserve">
<style type="text/css">
	.st0{fill-rule:evenodd;clip-rule:evenodd;fill:#FFFFFF;}
	.st1{fill:none;stroke:#D56457;stroke-width:2;stroke-miterlimit:10;}
	.st2{fill:none;stroke:#474747;stroke-width:2;stroke-linecap:round;stroke-linejoin:round;stroke-miterlimit:10;}
	.st3{fill:none;stroke:#D56457;stroke-width:2;stroke-linecap:round;stroke-linejoin:round;stroke-miterlimit:10;}
</style>
<g>
	<rect class="st0" width="169.9" height="142.6"/>
	<g>
		<g>
			<line class="st1" x1="68.3" y1="61.2" x2="86.3" y2="61.2"/>
			<line class="st1" x1="86.3" y1="66.7" x2="68.3" y2="66.7"/>
			<path class="st1" d="M98.8,68.1c-1.5,2.5-4,4.2-6.9,4.2H71.1"/>
			<path class="st1" d="M71.1,55.6h20.8c2.9,0,5.4,1.7,6.9,4.2H128"/>
			<line class="st1" x1="98.8" y1="68.1" x2="128" y2="68.1"/>
			<line class="st1" x1="98.8" y1="68.1" x2="100.2" y2="65.3"/>
		</g>
		<g>
			<path class="st1" d="M107.1,86.2l-5.5,4.2h-18c-8.3,0-15.3-2.8-15.3-9.7h38.8H128"/>
		</g>
		<path class="st2" d="M57.8,72.3c-1.8-3.8-2.7-8-2.7-12.5C55.1,43.3,68.5,30,84.9,30c12.6,0,23.3,7.8,27.7,18.7"/>
		<path class="st2" d="M117.8,87.5c-7.9,9.3-19.7,15.3-32.9,15.3c-23.8,0-43-19.3-43-43c0-23.8,19.3-43,43-43s43,19.3,43,43"/>
		<line class="st3" x1="105.8" y1="87.5" x2="117.8" y2="87.5"/>
	</g>
</g>
</svg>
