<?xml version="1.0" encoding="utf-8"?>
<!-- Generator: Adobe Illustrator 24.0.0, SVG Export Plug-In . SVG Version: 6.00 Build 0)  -->
<svg version="1.1" id="Layer_1" xmlns="http://www.w3.org/2000/svg" xmlns:xlink="http://www.w3.org/1999/xlink" x="0px" y="0px"
	 viewBox="0 0 169.9 142.6" style="enable-background:new 0 0 169.9 142.6;" xml:space="preserve">
<style type="text/css">
	.st0{fill-rule:evenodd;clip-rule:evenodd;fill:#FFFFFF;}
	.st1{fill:none;stroke:#515151;stroke-width:2;stroke-miterlimit:10;}
	.st2{fill:none;stroke:#D56457;stroke-width:2;stroke-miterlimit:10;}
</style>
<g>
	<rect class="st0" width="169.9" height="142.6"/>
	<g>
		<path class="st1" d="M64.7,109.1"/>
		<path class="st1" d="M64.7,109.1"/>
		<path class="st1" d="M103.7,50.6l5.7-5.7c4-4,11,0.1,14.6,3.8l1.2,1.2c3.7,3.7,7.9,10.6,3.8,14.6l-48.9,48.9c0,0-6.3-5.7-12.2,0.2
			l-20.2,20.2c-1.5,1.5-4.5,0.9-6-0.6l-0.8-0.8c-1.5-1.5-2.3-4.8-0.8-6.3L60.3,106c5.9-5.9,0.2-12.2,0.2-12.2l17.2-17.2"/>
		<path class="st2" d="M95.8,68.9c-4.8,4.8-12.5,4.8-17.3,0c-4.8-4.8-4.8-12.5,0-17.3c4.8-4.8,12.5-4.8,17.3,0
			C100.6,56.4,100.6,64.1,95.8,68.9z"/>
		<line class="st1" x1="62.1" y1="103.6" x2="70.3" y2="111.8"/>
	</g>
</g>
</svg>
